<svg width="1024" height="1024" xmlns="http://www.w3.org/2000/svg" version="1.1">

 <g>
  <title>Layer 1</title>
  <path id="svg_2" fill="#000000" d="m562.50428,10.06649c7.72139,6.89998 14.15261,14.98292 20.3543,23.24287c0.50155,0.61543 1.0031,1.23085 1.51985,1.86492c4.13661,5.2075 6.67408,10.20255 8.82524,16.47411c0.31477,0.88741 0.62954,1.77483 0.95384,2.68913c2.75919,7.92396 5.14168,15.92123 6.97291,24.11406c0.28589,1.24384 0.28589,1.24384 0.57755,2.5128c1.65411,7.93262 1.93775,15.69795 1.91136,23.78814c-0.00341,2.17908 0.02196,4.3566 0.04908,6.53549c0.0042,8.57888 -0.79687,16.01718 -3.61281,24.12875c-0.39209,1.17491 -0.7842,2.34981 -1.18818,3.56032c-6.37768,15.84061 -16.88963,27.07087 -31.05627,36.20782c-0.6647,0.43869 -1.3294,0.87737 -2.01422,1.32935c-12.88495,8.43184 -26.43688,14.92335 -40.45985,21.17432c-25.93935,11.56975 -51.72402,23.60274 -76.04944,38.31153c-4.54057,2.74342 -9.1395,5.36293 -13.78785,7.91836c-0.65162,0.35848 -1.30325,0.71698 -1.97461,1.08633c-3.1505,1.73003 -6.3055,3.45109 -9.46525,5.16418c-6.26893,3.4362 -12.22011,7.05117 -18.02152,11.22914c-2.85551,2.0521 -5.75425,4.02773 -8.66937,5.99413c-1.0031,0.6789 -2.00621,1.35779 -3.03971,2.05727c-2.05309,1.38752 -4.10758,2.773 -6.1634,4.1565c-11.86185,7.39326 -11.86185,7.39326 -19.19551,18.73369c-2.96731,22.98147 7.46286,47.02119 21.1452,64.8636c8.49649,10.57606 17.86484,11.49135 30.71462,12.9933c8.70007,1.08546 17.13147,2.29557 25.52685,4.90384c1.29822,0.39902 2.59643,0.79805 3.93399,1.20917c7.33708,2.32203 14.36625,5.03465 21.33255,8.32142c25.09021,11.40463 51.56844,2.07595 76.84086,-4.15651c1.07134,-0.26377 2.14269,-0.52753 3.24649,-0.79929c20.69585,-5.08151 20.69585,-5.08151 41.25257,-10.69252c19.42215,-5.50403 39.55731,-8.03112 59.62362,-9.80297c1.12656,-0.10184 1.12656,-0.10184 2.27588,-0.20573c46.37188,-4.11228 87.5764,5.28197 127.91106,27.94939c1.17785,0.65881 1.17785,0.65881 2.3795,1.33092c26.98477,15.1993 51.56859,34.19411 71.92547,57.66214c1.82002,2.05988 3.70733,3.94316 5.70156,5.83171c5.50528,5.41586 9.99861,11.73942 14.57718,17.93597c0.66643,0.89919 1.33286,1.79838 2.01948,2.72483c20.02071,27.82462 33.5935,58.76979 42.04793,91.85887c0.42223,1.61512 0.84484,3.23016 1.26795,4.84506c0.70071,2.67688 1.35016,5.35827 1.98404,8.05246c0.64783,2.73436 1.37053,5.39307 2.16852,8.09259c4.43681,15.80053 3.67653,32.02016 3.47321,48.27135c-0.04466,3.95665 -0.06376,7.91343 -0.08529,11.87027c-0.04556,7.70877 -0.11854,15.41693 -0.20992,23.12531c1.52122,0.5076 3.04248,1.01508 4.56376,1.52248c0.84715,0.28261 1.69431,0.56522 2.56712,0.8564c1.63606,0.54411 3.27347,1.08422 4.91251,1.61931c5.68464,1.88545 10.10824,4.85635 14.82698,8.49654c0.75224,0.57724 1.50448,1.15447 2.27952,1.7492c15.75044,12.32197 24.7139,29.333 27.81529,49.17015c1.62947,30.9913 -9.33673,63.27669 -30.09771,86.71099c-4.37126,4.79747 -8.91134,9.33712 -13.89413,13.50289c-2.66476,2.26756 -5.18454,4.66933 -7.73363,7.06607c-20.37989,18.49909 -44.60109,30.64785 -72.05877,34.28071c-0.98846,0.13145 -1.97694,0.2629 -2.99536,0.39834c-1.94984,0.25102 -3.90164,0.48737 -5.85533,0.70639c-12.15383,1.52397 -21.36476,6.49486 -29.02078,16.16211c-6.68024,8.87834 -12.62259,18.22642 -18.44032,27.68278c-3.39762,5.49206 -7.0269,10.63383 -11.221,15.5549c-0.71215,0.84239 -1.4243,1.68477 -2.15802,2.55269c-27.52588,31.57089 -58.2604,38.41185 -98.43792,44.72657c-23.3015,3.67299 -45.9538,8.52191 -68.78032,14.39324c-7.19331,1.84012 -14.42504,3.48574 -21.67206,5.10037c-14.05903,3.16566 -27.81655,7.21193 -41.59449,11.41728c-26.36877,8.04158 -53.7931,13.04397 -79.33031,-0.39388c-12.56464,-7.01843 -22.03471,-16.08991 -31.64852,-26.6628c-9.45003,-10.51567 -9.45003,-10.51567 -21.81538,-16.7394c-6.00212,-0.26508 -11.29569,0.33962 -17.12986,1.81375c-0.79026,0.1912 -1.58052,0.3824 -2.39472,0.57939c-4.68229,1.15736 -9.29039,2.47818 -13.89413,3.91326c-11.94046,3.71625 -24.09468,5.78596 -36.44425,7.66619c-1.1995,0.18973 -2.399,0.37945 -3.63485,0.57493c-5.96979,0.76737 -11.9115,0.7822 -17.92442,0.81714c-1.46924,0.01232 -2.93844,0.03421 -4.40737,0.06612c-17.73778,0.38364 -31.83879,-4.13617 -45.23984,-15.96819c-10.77204,-11.3051 -13.26098,-26.27691 -12.99015,-41.25441c0.99299,-21.87029 12.90426,-43.23292 28.37343,-58.0316c0.83269,-0.75094 1.66537,-1.50188 2.5233,-2.27559c1.90471,-1.97494 1.90471,-1.97494 1.80955,-4.26147c-1.75657,-3.28103 -4.25204,-5.06186 -7.15424,-7.36836c-1.17736,-0.95398 -2.35434,-1.90844 -3.53094,-2.86337c-1.12894,-0.90464 -2.2583,-1.80876 -3.38818,-2.71223c-5.71176,-4.60241 -9.64716,-8.42114 -12.89778,-15.04741c-0.3824,-0.64703 -0.7648,-1.29406 -1.15879,-1.9607c-2.74083,-6.46883 -1.80077,-15.13381 0.55421,-21.61805c2.73663,-6.01468 6.47366,-11.4721 10.14777,-16.94512c2.0915,-3.2509 3.84947,-6.50317 5.50422,-9.99242c-0.59464,-0.19692 -1.18928,-0.39383 -1.80194,-0.59672c-2.62519,-0.87181 -5.24866,-1.74856 -7.8714,-2.62773c-0.73518,-0.24627 -1.47037,-0.49254 -2.22782,-0.74629c-11.52224,-3.91943 -22.65317,-8.62675 -33.7113,-13.69654c-1.24669,-0.56442 -2.49339,-1.12883 -3.77786,-1.71036c-10.97123,-5.10993 -21.24743,-11.17573 -30.07881,-19.51723c-0.91859,-0.85763 -1.83718,-1.71525 -2.7836,-2.59887c-3.31773,-3.21289 -6.57786,-6.479 -9.82685,-9.76124c-9.26542,-9.50005 -9.26542,-9.50005 -19.02941,-18.47364c-16.93337,-14.51954 -25.01523,-30.43617 -32.04712,-51.20904c-2.68464,-7.88555 -5.90526,-15.2565 -9.53478,-22.75165c-11.67031,-24.24259 -13.35803,-46.65278 -13.90542,-73.42328c-5.42498,-2.45619 -10.78088,-4.29376 -16.52528,-5.84431c-0.84014,-0.23302 -1.68027,-0.46605 -2.54586,-0.70613c-4.153,-1.1345 -8.30046,-2.18276 -12.51835,-3.04733c-24.49204,-5.04339 -47.29286,-19.26386 -61.24764,-40.29296c-0.57637,-0.91582 -1.15274,-1.83163 -1.74657,-2.7752c-0.57637,-0.90474 -1.15274,-1.80947 -1.74657,-2.74162c-12.40207,-20.9285 -10.80503,-45.38282 -5.2371,-68.26596c0.82641,-3.0739 1.74173,-6.10944 2.7222,-9.13751c2.92025,-10.39233 3.83932,-21.06572 4.87776,-31.77207c6.03799,-61.50419 6.03799,-61.50419 16.63454,-88.75071c2.58431,-6.72416 4.03561,-12.99435 4.85005,-20.1394c0.26018,-1.97946 0.52466,-3.95837 0.79351,-5.93667c0.19042,-1.40437 0.19042,-1.40437 0.38469,-2.83713c2.60109,-18.28578 12.52627,-34.50656 27.33378,-45.65129c14.40511,-9.5325 30.91549,-14.92995 47.19529,-20.34171c1.07619,-0.35954 2.15238,-0.71907 3.26118,-1.08951c21.76827,-7.1435 44.15867,-11.15959 67.10429,-11.36271c0.85114,-0.01541 1.70226,-0.03083 2.57919,-0.04671c1.09914,-0.00116 1.09914,-0.00116 2.22048,-0.00235c3.15183,-0.56254 5.06487,-1.66567 7.5956,-3.62094c1.26199,-2.66121 1.26199,-2.66121 1.83054,-5.80232c0.27243,-1.18764 0.54486,-2.37527 0.82553,-3.5989c0.27624,-1.28686 0.55248,-2.57374 0.83708,-3.89961c0.63332,-2.7378 1.27456,-5.47378 1.92291,-8.20806c0.16651,-0.70496 0.33302,-1.40993 0.50457,-2.13626c2.78823,-11.61232 6.61884,-22.9303 10.24095,-34.30248c1.09367,-3.50329 2.09976,-7.0218 3.07462,-10.55949c13.57955,-48.98581 13.57955,-48.98581 31.2801,-60.47066c3.8409,-2.10239 7.73998,-3.79971 11.82296,-5.37407c1.23864,-0.51748 1.23864,-0.51748 2.5023,-1.04543c14.30414,-5.23025 30.37433,-2.67676 43.91627,3.39659c10.51128,5.59713 17.71055,15.0338 21.53409,26.21121c4.43735,15.22061 5.6955,28.80349 1.29025,44.12959c-1.10103,3.83079 -1.7743,7.15133 -1.52957,11.14359c5.56399,-1.22137 8.23537,-3.61801 11.9993,-7.62026c1.91285,-1.99018 3.89851,-3.76312 6.00385,-5.54622c3.61231,-3.10423 6.94597,-6.40465 10.27792,-9.80768c4.70554,-4.7899 9.65694,-9.12151 14.92565,-13.28403c2.43154,-1.96694 4.76277,-3.98264 7.09545,-6.06263c4.35613,-3.83138 8.92398,-7.2542 13.64931,-10.6138c0.84117,-0.602 1.68234,-1.20401 2.54901,-1.82425c12.55119,-8.95391 25.28381,-17.57742 38.22625,-25.95536c18.20063,-11.78188 36.11314,-23.95526 53.71188,-36.62111c42.86992,-30.78043 42.86992,-30.78043 57.66633,-24.13715z"/>
 </g>
</svg>